<svg data-v-423bf9ae="" xmlns="http://www.w3.org/2000/svg" viewBox="0 0 549 90" class="iconLeft"><!----><!----><!----><g data-v-423bf9ae="" id="249e84c3-78df-4ba5-b53c-d023124b619d" fill="#3A1C18" transform="matrix(4.62606038369033,0,0,4.62606038369033,134.28644593421208,-1.7000800332792636)"><path d="M7.76 3.98L5.99 3.98L5.99 7.81L5.82 7.81C5.46 7.22 4.84 6.64 3.61 6.64C1.88 6.64 0.42 8.18 0.42 10.30C0.42 12.43 1.88 13.97 3.61 13.97C4.84 13.97 5.46 13.38 5.82 12.80L6.02 12.80L6.02 13.78L7.76 13.78ZM4.09 8.20C5.18 8.20 5.99 8.99 5.99 10.30C5.99 11.62 5.18 12.40 4.09 12.40C3.02 12.40 2.18 11.65 2.18 10.30C2.18 8.96 3.02 8.20 4.09 8.20ZM9.02 10.25C9.02 12.40 10.51 13.97 12.59 13.97C14.45 13.97 15.26 12.99 15.74 12.26L14.22 11.40C13.99 11.89 13.54 12.43 12.56 12.43C11.55 12.43 10.89 11.72 10.85 10.82L15.99 10.82L15.99 10.14C15.99 8.05 14.57 6.64 12.56 6.64C10.51 6.64 9.02 8.15 9.02 10.25ZM10.86 9.59C10.98 8.76 11.55 8.18 12.54 8.18C13.45 8.18 14.07 8.74 14.17 9.59ZM16.83 10.25C16.83 12.40 18.33 13.97 20.40 13.97C22.26 13.97 23.07 12.99 23.55 12.26L22.04 11.40C21.80 11.89 21.35 12.43 20.37 12.43C19.36 12.43 18.70 11.72 18.66 10.82L23.80 10.82L23.80 10.14C23.80 8.05 22.39 6.64 20.37 6.64C18.33 6.64 16.83 8.15 16.83 10.25ZM18.68 9.59C18.79 8.76 19.36 8.18 20.36 8.18C21.27 8.18 21.88 8.74 21.98 9.59ZM25.06 16.58L26.82 16.58L26.82 12.80L26.99 12.80C27.36 13.38 27.97 13.97 29.20 13.97C30.94 13.97 32.40 12.43 32.40 10.30C32.40 8.18 30.94 6.64 29.20 6.64C27.97 6.64 27.36 7.22 26.99 7.81L26.80 7.81L26.80 6.83L25.06 6.83ZM28.73 12.40C27.64 12.40 26.82 11.62 26.82 10.30C26.82 8.99 27.64 8.20 28.73 8.20C29.79 8.20 30.63 8.96 30.63 10.30C30.63 11.65 29.79 12.40 28.73 12.40ZM37.02 10.25C37.02 12.40 38.51 13.97 40.59 13.97C42.45 13.97 43.26 12.99 43.74 12.26L42.22 11.40C41.99 11.89 41.54 12.43 40.56 12.43C39.55 12.43 38.89 11.72 38.85 10.82L43.99 10.82L43.99 10.14C43.99 8.05 42.57 6.64 40.56 6.64C38.51 6.64 37.02 8.15 37.02 10.25ZM38.86 9.59C38.98 8.76 39.55 8.18 40.54 8.18C41.45 8.18 42.07 8.74 42.17 9.59ZM45.25 6.83L45.25 13.78L47.01 13.78L47.01 9.55C47.01 8.68 47.54 8.26 48.27 8.26C48.94 8.26 49.41 8.62 49.41 9.27L49.41 13.78L51.17 13.78L51.17 9.55C51.17 8.68 51.70 8.26 52.43 8.26C53.10 8.26 53.56 8.62 53.56 9.27L53.56 13.78L55.33 13.78L55.33 9.13C55.33 7.69 54.31 6.72 53.03 6.72C51.93 6.72 51.37 7.25 51.06 7.90L50.86 7.90C50.57 7.20 49.91 6.72 49.01 6.72C48.05 6.72 47.47 7.20 47.18 7.87L46.98 7.87L46.98 6.83ZM56.50 10.30C56.50 12.49 58.10 13.97 60.14 13.97C62.19 13.97 63.78 12.49 63.78 10.30C63.78 8.12 62.19 6.64 60.14 6.64C58.10 6.64 56.50 8.12 56.50 10.30ZM58.27 10.30C58.27 9.07 59.02 8.26 60.14 8.26C61.26 8.26 62.02 9.07 62.02 10.30C62.02 11.54 61.26 12.35 60.14 12.35C59.02 12.35 58.27 11.54 58.27 10.30ZM64.34 6.83L64.34 8.37L66.11 8.37L66.11 12.43C66.11 13.22 66.70 13.78 67.48 13.78L69.38 13.78L69.38 12.24L68.26 12.24C68.01 12.24 67.87 12.10 67.87 11.82L67.87 8.37L69.78 8.37L69.78 6.83L67.87 6.83L67.87 4.68L66.11 4.68L66.11 6.83ZM70.73 4.82C70.73 5.53 71.27 6.02 71.97 6.02C72.67 6.02 73.22 5.53 73.22 4.82C73.22 4.10 72.67 3.61 71.97 3.61C71.27 3.61 70.73 4.10 70.73 4.82ZM72.86 6.83L71.09 6.83L71.09 13.78L72.86 13.78ZM74.12 10.30C74.12 12.49 75.71 13.97 77.76 13.97C79.80 13.97 81.40 12.49 81.40 10.30C81.40 8.12 79.80 6.64 77.76 6.64C75.71 6.64 74.12 8.12 74.12 10.30ZM75.88 10.30C75.88 9.07 76.64 8.26 77.76 8.26C78.88 8.26 79.63 9.07 79.63 10.30C79.63 11.54 78.88 12.35 77.76 12.35C76.64 12.35 75.88 11.54 75.88 10.30ZM82.66 6.83L82.66 13.78L84.42 13.78L84.42 10.19C84.42 8.96 85.02 8.26 86.16 8.26C87.16 8.26 87.72 8.83 87.72 9.80L87.72 13.78L89.49 13.78L89.49 9.63C89.49 7.83 88.33 6.72 86.79 6.72C85.51 6.72 84.87 7.31 84.59 7.95L84.39 7.95L84.39 6.83Z"></path></g><defs data-v-423bf9ae=""><linearGradient data-v-423bf9ae="" gradientTransform="rotate(25)" id="009efb98-34bf-4794-b6a7-fc46ec87edaf" x1="0%" y1="0%" x2="100%" y2="0%"><stop data-v-423bf9ae="" offset="0%" style="stop-color: rgb(255, 90, 32); stop-opacity: 1;"></stop><stop data-v-423bf9ae="" offset="100%" style="stop-color: rgb(255, 172, 199); stop-opacity: 1;"></stop></linearGradient></defs><g data-v-423bf9ae="" id="aa5d17a5-0695-4c8e-aad1-61a5af717c64" transform="matrix(1.4242749062293916,0,0,1.4242749062293916,-5.8953738026115445,-18.687829451176512)" stroke="none" fill="url(#009efb98-34bf-4794-b6a7-fc46ec87edaf)"><path d="M45.04 58.805l.289-29.327-3.734-16.072s-12.9 5.61-19.616 7.917c-6.717 2.306-17.782 8.161-17.782 8.161l10.899 26.737.004-.002c3.191 8.704 18.416 11.389 22.314 10.05 2.188-.751 5.178-3.282 7.621-6.629l.002-.369c-.002-.155-.001-.312.003-.466zm-10.596-29.72c2.646-.908 5.893 1.57 6.4 3.044.506 1.474-2.17.665-4.814 1.572-2.646.909-4.259 3.191-4.766 1.718-.504-1.475.535-5.425 3.18-6.334zM18.497 39.723c-2.646.908-4.258 3.19-4.765 1.715-.505-1.474.534-5.426 3.179-6.333 2.646-.909 5.893 1.571 6.4 3.045.506 1.476-2.169.665-4.814 1.573zm14.936 14.958c-5.179 1.778-8.559 5.6-9.338 3.331-.779-2.27 1.719-8.662 6.897-10.441 5.178-1.778 11.076 1.732 11.856 4.002.779 2.27-4.237 1.33-9.415 3.108zm48.841 6.364h.003l3.526-28.656s-12.213-2.758-19.298-3.227c-7.086-.47-19.555.653-19.555.653l-.285 28.873h.004c-.421 9.26 12.582 17.621 16.694 17.895 5.298.348 18.109-6.303 18.911-15.538zM51.123 44.526c.103-1.555 2.59-4.798 5.38-4.612 2.791.185 4.828 3.726 4.725 5.282-.103 1.556-2.257-.226-5.048-.41-2.789-.187-5.16 1.296-5.057-.26zm12.974 20.98c-5.463-.361-9.545-5.877-9.387-8.273.158-2.393 4.42.411 9.883.773 5.464.362 10.06-1.857 9.901.537-.158 2.395-4.934 7.326-10.397 6.963zm10.582-19.497c-2.791-.184-5.161 1.298-5.059-.257.104-1.556 2.59-4.798 5.38-4.613 2.792.185 4.829 3.727 4.725 5.282-.102 1.556-2.256-.226-5.046-.412z"></path></g><!----></svg>